<?xml version="1.0" standalone="no"?>
<!DOCTYPE svg PUBLIC "-//W3C//DTD SVG 20010904//EN"
 "http://www.w3.org/TR/2001/REC-SVG-20010904/DTD/svg10.dtd">
<svg version="1.0" xmlns="http://www.w3.org/2000/svg"
 width="383.000000pt" height="186.000000pt" viewBox="0 0 383.000000 186.000000"
 preserveAspectRatio="xMidYMid meet">

<g transform="translate(0.000000,186.000000) scale(0.100000,-0.100000)"
fill="#000000" stroke="none">
<path d="M924 1322 c-9 -14 -2 -29 33 -77 37 -50 43 -55 37 -30 -4 17 -13 42
-21 58 -16 32 -9 33 51 7 25 -10 46 -17 46 -14 0 11 -37 43 -60 52 -56 21 -75
22 -86 4z"/>
<path d="M865 1238 c-3 -13 -6 -50 -7 -83 -3 -57 -4 -60 -28 -59 -14 0 -35 3
-47 7 -20 7 -22 2 -38 -65 -35 -158 -28 -147 -92 -150 -75 -4 -86 -28 -14 -28
44 0 51 -3 51 -20 0 -17 -8 -19 -77 -22 -56 -2 -77 -7 -75 -15 1 -7 -2 -13 -7
-13 -5 0 -16 -11 -25 -25 -20 -30 -7 -71 26 -85 13 -5 34 -18 47 -27 23 -17
24 -17 13 3 -13 25 10 58 51 73 15 6 32 22 37 36 7 17 14 24 22 19 9 -5 8 -2
-1 9 -12 15 -12 17 4 11 15 -6 17 -3 13 14 -3 12 0 29 8 39 7 10 14 25 14 34
0 9 14 21 33 27 30 10 31 11 10 17 -26 8 -28 18 -11 80 12 43 14 45 49 45 31
0 38 -4 42 -22 3 -22 4 -22 15 5 7 16 16 26 21 23 5 -3 11 1 15 9 3 9 0 15 -9
15 -12 0 -15 17 -15 85 0 80 -13 114 -25 63z m-214 -468 c-29 -25 -33 -25 -49
0 -11 19 -10 20 30 20 l43 -1 -24 -19z m-83 -9 c19 -11 11 -45 -11 -49 -19 -4
-32 20 -23 43 6 17 15 19 34 6z"/>
<path d="M586 1218 c-21 -18 -46 -49 -57 -70 -17 -34 -23 -38 -58 -38 -31 0
-40 5 -49 26 -15 32 -33 22 -26 -15 6 -26 4 -28 -25 -23 -24 3 -31 0 -31 -12
0 -12 9 -16 34 -16 26 0 35 -5 40 -22 9 -36 9 -37 -41 -40 -67 -4 -70 -28 -4
-28 70 0 91 14 80 54 -13 44 -12 46 21 46 27 0 65 28 65 47 0 7 7 16 65 86 39
45 35 47 -14 5z"/>
<path d="M3005 1100 c-187 -3 -337 -6 -333 -8 4 -1 3 -13 -2 -27 -9 -23 -8
-25 14 -19 14 3 27 1 31 -6 6 -9 10 -9 16 1 7 11 9 10 9 -3 0 -10 3 -18 8 -18
4 0 15 -14 25 -31 13 -24 15 -35 6 -45 -6 -8 -9 -20 -6 -28 4 -10 1 -13 -7
-10 -23 9 -27 -25 -6 -46 11 -11 20 -22 19 -25 0 -3 2 -11 5 -18 7 -14 3 -22
64 113 l48 105 55 3 55 3 52 -118 c29 -65 52 -124 52 -130 0 -9 -16 -13 -44
-13 -36 0 -46 4 -51 20 -5 17 -15 20 -65 20 -49 0 -58 -3 -63 -20 -5 -18 -14
-20 -101 -20 -53 0 -96 4 -96 8 0 5 -6 16 -13 26 -12 16 -14 16 -14 2 0 -9 5
-16 10 -16 5 0 4 -7 -3 -15 -7 -8 -16 -13 -20 -10 -5 3 -10 -1 -12 -7 -5 -14
-88 -20 -88 -6 0 4 -8 8 -17 8 -15 0 -16 -2 -3 -10 9 -6 -120 -9 -355 -9 -339
-1 -368 1 -350 15 19 16 19 16 -5 9 -14 -4 -27 -11 -30 -16 -8 -11 -69 -8 -77
4 -3 6 -1 7 4 4 6 -4 17 1 24 10 12 15 12 16 -6 10 -18 -6 -18 -5 -4 5 16 13
19 19 19 38 0 6 8 10 19 10 17 0 19 9 20 97 1 54 3 99 5 100 2 2 20 4 40 5 20
1 39 5 42 10 3 4 -3 5 -12 1 -12 -4 -15 -2 -12 8 12 36 -13 39 -306 39 -160 0
-287 -4 -290 -9 -13 -21 7 -41 39 -41 67 0 125 -39 125 -85 0 -22 -4 -25 -38
-25 -26 0 -45 7 -57 20 -18 20 -46 26 -59 13 -4 -5 -13 -8 -19 -8 -7 0 -13 -9
-13 -20 -1 -11 -5 -27 -8 -36 -4 -9 2 -27 15 -43 17 -22 27 -26 48 -21 14 4
35 15 47 26 23 22 79 26 87 5 8 -19 -14 -56 -46 -80 -22 -16 -43 -21 -90 -21
-76 0 -121 24 -144 78 l-17 37 -38 -42 c-42 -49 -47 -73 -17 -81 13 -3 18 -10
14 -17 -4 -7 -15 -10 -26 -7 -13 4 -21 -3 -29 -26 -13 -39 -2 -47 64 -47 l50
0 -28 -29 c-33 -34 -110 -78 -150 -85 l-29 -5 27 28 c14 15 23 30 19 34 -3 4
-1 7 6 7 7 0 10 4 7 9 -4 5 0 12 6 14 10 4 10 6 1 6 -7 1 -18 -9 -24 -21 -7
-13 -11 -23 -9 -23 3 0 -6 -12 -19 -27 -13 -15 -27 -26 -30 -23 -4 2 -7 -6 -7
-17 0 -17 5 -19 37 -15 60 8 144 52 199 103 l50 47 78 2 c42 0 167 2 277 3
134 2 195 6 185 12 -13 8 -13 10 2 10 11 0 15 5 12 15 -5 13 45 15 415 15 232
0 421 -2 421 -5 0 -3 -10 -10 -22 -15 -19 -7 -19 -9 -5 -9 10 -1 16 -5 13 -10
-4 -7 868 -23 881 -16 1 1 -34 49 -78 108 l-81 107 76 101 c41 56 73 106 70
110 -3 5 -26 8 -52 7 -26 -2 -200 -5 -387 -8z m244 -64 c20 -21 20 -24 5 -30
-9 -3 -23 -1 -30 5 -11 9 -18 8 -29 -1 -8 -7 -22 -9 -31 -6 -15 6 -14 9 6 31
29 31 50 32 79 1z m-1548 -9 c42 -28 61 -77 53 -137 -9 -74 -69 -120 -156
-120 -92 0 -152 57 -152 143 0 92 50 137 155 137 52 0 73 -5 100 -23z m1568
-73 c12 -15 21 -40 21 -55 0 -28 -2 -29 -50 -30 -71 -2 -75 -3 -72 -19 9 -39
45 -51 82 -28 15 10 22 10 32 0 11 -11 9 -16 -7 -28 -75 -56 -165 3 -152 100
11 80 102 116 146 60z"/>
<path d="M1557 962 c-17 -19 -22 -68 -9 -88 14 -21 47 -33 65 -23 9 6 17 6 17
2 1 -17 29 43 30 62 1 56 -68 86 -103 47z"/>
<path d="M3193 939 c-39 -15 -28 -39 17 -39 28 0 40 4 40 15 0 21 -31 34 -57
24z"/>
<path d="M1086 1088 l-38 -11 6 -51 c3 -28 6 -59 6 -68 0 -12 7 -16 28 -13 15
2 30 4 34 4 3 1 15 17 27 36 11 19 32 40 46 47 27 12 33 36 13 56 -14 14 -68
14 -122 0z"/>
<path d="M1890 1056 c0 -2 8 -10 18 -17 15 -13 16 -12 3 4 -13 16 -21 21 -21
13z"/>
<path d="M2604 950 c1 -9 12 -16 26 -17 21 -1 21 -1 3 3 -12 3 -24 11 -26 17
-2 7 -3 5 -3 -3z"/>
<path d="M2633 957 c-3 -7 -3 -9 2 -5 4 4 14 3 21 -3 8 -7 14 -7 19 1 3 5 5
10 3 11 -27 6 -39 5 -45 -4z"/>
<path d="M2942 923 c-16 -29 -15 -33 8 -33 22 0 23 4 11 35 -8 19 -8 19 -19
-2z"/>
<path d="M283 913 c-30 -11 -10 -24 34 -21 58 4 73 28 16 27 -21 0 -44 -3 -50
-6z"/>
<path d="M2630 850 c-12 -8 -13 -13 -2 -30 16 -27 5 -26 -19 3 l-20 22 3 -25
c1 -14 -1 -31 -5 -37 -10 -16 -10 -16 33 0 28 10 35 17 35 39 0 33 -6 40 -25
28z"/>
<path d="M1885 810 c-3 -5 -1 -10 4 -10 6 0 11 5 11 10 0 6 -2 10 -4 10 -3 0
-8 -4 -11 -10z"/>
<path d="M1759 808 c-8 -32 -4 -45 13 -40 21 5 21 33 1 40 -7 2 -13 2 -14 0z"/>
</g>
</svg>
